<?xml version="1.0" encoding="UTF-8"?>
<svg id="Layer_1" xmlns="http://www.w3.org/2000/svg" version="1.1" viewBox="0 0 841.89 449.28">
  <!-- Generator: Adobe Illustrator 30.4.0, SVG Export Plug-In . SVG Version: 2.1.3 Build 103)  -->
  <defs>
    <style>
      .st0 {
        fill: #5f3c74;
      }
    </style>
  </defs>
  <g>
    <path class="st0" d="M114.14,306.84c-3.32,1.45-6.94,2.17-10.86,2.17-5.01,0-9.08-1.6-12.22-4.8-2.96-3.05-4.43-6.85-4.43-11.4s1.48-8.35,4.43-11.4c3.11-3.2,7.18-4.8,12.22-4.8,3.56,0,7.12.77,10.68,2.31l-1.63,4.57c-3.68-1.3-6.7-1.95-9.05-1.95-3.53,0-6.3,1.18-8.32,3.53-1.78,2.11-2.67,4.69-2.67,7.74s.89,5.63,2.67,7.74c2.02,2.35,4.8,3.53,8.32,3.53,1.93,0,3.71-.2,5.34-.59.42-.09,1.72-.48,3.89-1.18l1.63,4.52Z"/>
    <path class="st0" d="M149.97,308.47h-18.64v-31.4h18.28v4.93l-12.76.05v8.01h11.85v4.98h-11.85v8.46h13.12v4.98Z"/>
    <path class="st0" d="M192.73,308.47h-4.84l-14.7-21.54v21.54h-5.52v-30.81l4.75-.59,14.84,21.63v-21.63h5.47v31.4Z"/>
    <path class="st0" d="M230.96,282.05h-8.28l-.05,26.42h-5.52v-26.42h-8.32v-4.98h22.17v4.98Z"/>
    <path class="st0" d="M268.33,308.47h-6.24l-7.47-12.03h-2.13v12.03h-5.47v-31.4h8.64c3.35,0,6.04.85,8.08,2.53,2.04,1.69,3.05,4.06,3.05,7.1,0,4.55-2.1,7.54-6.29,8.96l7.83,12.8ZM261.36,286.71c0-1.57-.39-2.71-1.18-3.44-.97-.84-2.65-1.27-5.07-1.27h-2.62v9.5h2.62c2.44,0,4.13-.44,5.07-1.31.78-.72,1.18-1.89,1.18-3.48Z"/>
    <path class="st0" d="M311.26,308.47h-5.7l-2.71-8.23h-11.67l-2.71,8.23h-5.61l10.86-31.35h6.7l10.86,31.35ZM301.22,295.3l-4.21-12.85-4.21,12.85h8.41Z"/>
    <path class="st0" d="M345.65,308.47h-18.41v-31.4h5.47v26.47h12.94v4.93Z"/>
    <path class="st0" d="M406.72,308.47h-18.41v-31.4h5.47v26.47h12.94v4.93Z"/>
    <path class="st0" d="M449.79,308.47h-5.7l-2.71-8.23h-11.67l-2.71,8.23h-5.61l10.86-31.35h6.7l10.86,31.35ZM439.75,295.3l-4.21-12.85-4.21,12.85h8.41Z"/>
    <path class="st0" d="M490.83,308.47h-4.84l-14.7-21.54v21.54h-5.52v-30.81l4.75-.59,14.84,21.63v-21.63h5.47v31.4Z"/>
    <path class="st0" d="M535.75,306.84c-3.32,1.45-6.94,2.17-10.86,2.17-5.01,0-9.08-1.6-12.22-4.8-2.96-3.05-4.43-6.85-4.43-11.4s1.48-8.35,4.43-11.4c3.11-3.2,7.18-4.8,12.22-4.8,3.56,0,7.12.77,10.68,2.31l-1.63,4.57c-3.68-1.3-6.7-1.95-9.05-1.95-3.53,0-6.3,1.18-8.32,3.53-1.78,2.11-2.67,4.69-2.67,7.74s.89,5.63,2.67,7.74c2.02,2.35,4.8,3.53,8.32,3.53,1.93,0,3.71-.2,5.34-.59.42-.09,1.72-.48,3.89-1.18l1.63,4.52Z"/>
    <path class="st0" d="M579.23,308.47h-5.7l-2.71-8.23h-11.67l-2.71,8.23h-5.61l10.86-31.35h6.7l10.86,31.35ZM569.19,295.3l-4.21-12.85-4.21,12.85h8.41Z"/>
    <path class="st0" d="M615.38,299.96c0,2.84-1.16,5.1-3.48,6.79-2.08,1.51-4.55,2.26-7.42,2.26-3.29,0-6.61-.97-9.95-2.9l1.72-4.43c3.47,1.63,6.21,2.44,8.23,2.44,1.69,0,3.02-.41,3.98-1.22.87-.75,1.31-1.73,1.31-2.94,0-1.54-1.25-2.97-3.76-4.3-4.37-2.29-6.68-3.53-6.92-3.71-2.5-1.81-3.76-4.13-3.76-6.97,0-2.68,1.09-4.81,3.26-6.38,1.87-1.33,4.07-1.99,6.61-1.99s5.49.71,9.05,2.13l-1.63,4.66c-2.96-1.27-5.43-1.9-7.42-1.9-1.45,0-2.55.38-3.3,1.13-.6.63-.9,1.42-.9,2.35,0,1.42,1.24,2.78,3.71,4.07,4.1,2.11,6.42,3.36,6.97,3.76,2.47,1.87,3.71,4.25,3.71,7.15Z"/>
    <path class="st0" d="M656.46,308.47h-5.52v-13.44h-12.71v13.44h-5.52v-31.4h5.52v12.99h12.71v-12.99h5.52v31.4Z"/>
    <path class="st0" d="M680.07,308.47h-5.52v-31.4h5.52v31.4Z"/>
    <path class="st0" d="M719.48,308.47h-6.24l-7.47-12.03h-2.13v12.03h-5.47v-31.4h8.64c3.35,0,6.04.85,8.08,2.53,2.04,1.69,3.05,4.06,3.05,7.1,0,4.55-2.1,7.54-6.29,8.96l7.83,12.8ZM712.51,286.71c0-1.57-.39-2.71-1.18-3.44-.97-.84-2.65-1.27-5.07-1.27h-2.62v9.5h2.62c2.44,0,4.13-.44,5.07-1.31.78-.72,1.18-1.89,1.18-3.48Z"/>
    <path class="st0" d="M754.77,308.47h-18.64v-31.4h18.28v4.93l-12.76.05v8.01h11.85v4.98h-11.85v8.46h13.12v4.98Z"/>
    <path class="st0" d="M194.36,361.9h-5.7l-2.71-8.23h-11.67l-2.71,8.23h-5.61l10.86-31.35h6.7l10.86,31.35ZM184.31,348.74l-4.21-12.85-4.21,12.85h8.41Z"/>
    <path class="st0" d="M235.39,361.9h-4.84l-14.7-21.54v21.54h-5.52v-30.81l4.75-.59,14.84,21.63v-21.63h5.47v31.4Z"/>
    <path class="st0" d="M280.18,346.16c0,4.52-1.25,8.2-3.76,11.04-2.74,3.14-6.61,4.7-11.58,4.7h-11.36v-31.4h11.36c5.01,0,8.87,1.55,11.58,4.66,2.5,2.8,3.76,6.47,3.76,10.99ZM274.57,346.16c0-3.17-.74-5.67-2.22-7.51-1.75-2.14-4.42-3.21-8.01-3.21h-5.34v21.49h5.34c3.59,0,6.26-1.09,8.01-3.26,1.48-1.84,2.22-4.34,2.22-7.51Z"/>
    <path class="st0" d="M343.56,353.4c0,2.84-1.16,5.1-3.48,6.79-2.08,1.51-4.55,2.26-7.42,2.26-3.29,0-6.61-.97-9.95-2.9l1.72-4.43c3.47,1.63,6.21,2.44,8.23,2.44,1.69,0,3.02-.41,3.98-1.22.87-.75,1.31-1.73,1.31-2.94,0-1.54-1.25-2.97-3.76-4.3-4.37-2.29-6.68-3.53-6.92-3.71-2.5-1.81-3.76-4.13-3.76-6.97,0-2.68,1.09-4.81,3.26-6.38,1.87-1.33,4.07-1.99,6.61-1.99s5.49.71,9.05,2.13l-1.63,4.66c-2.96-1.27-5.43-1.9-7.42-1.9-1.45,0-2.55.38-3.3,1.13-.6.63-.9,1.42-.9,2.35,0,1.42,1.24,2.78,3.71,4.07,4.1,2.11,6.42,3.36,6.97,3.76,2.47,1.87,3.71,4.25,3.71,7.15Z"/>
    <path class="st0" d="M392.79,346.2c0,4.52-1.51,8.34-4.52,11.45-3.14,3.2-7.09,4.8-11.85,4.8s-8.66-1.6-11.76-4.8c-3.02-3.11-4.52-6.92-4.52-11.45s1.53-8.31,4.59-11.45c3.06-3.14,6.96-4.7,11.7-4.7s8.72,1.58,11.85,4.75c3.02,3.11,4.52,6.91,4.52,11.4ZM387.18,346.2c0-3.17-1-5.83-3.01-7.99-2.01-2.16-4.59-3.24-7.76-3.24s-5.74,1.08-7.71,3.24c-1.98,2.16-2.96,4.82-2.96,7.99s.98,5.82,2.94,7.96c1.99,2.23,4.57,3.35,7.74,3.35s5.76-1.12,7.78-3.35c1.99-2.14,2.99-4.8,2.99-7.96Z"/>
    <path class="st0" d="M436.4,350.09c0,3.47-1.26,6.4-3.78,8.78-2.52,2.38-5.65,3.57-9.39,3.57s-6.9-1.18-9.39-3.55c-2.49-2.37-3.73-5.3-3.73-8.8v-19.54h5.47v18.82c0,2.38.7,4.34,2.1,5.86,1.4,1.52,3.25,2.28,5.54,2.28s4.18-.76,5.59-2.28c1.4-1.52,2.1-3.48,2.1-5.86l-.09-18.82h5.56v19.54Z"/>
    <path class="st0" d="M474.45,335.48h-8.28l-.05,26.42h-5.52v-26.42h-8.32v-4.98h22.17v4.98Z"/>
    <path class="st0" d="M514.26,361.9h-5.52v-13.44h-12.71v13.44h-5.52v-31.4h5.52v12.99h12.71v-12.99h5.52v31.4Z"/>
    <path class="st0" d="M552.58,340.37c0,3.14-1,5.57-2.99,7.31-1.99,1.73-4.68,2.6-8.05,2.6h-3.71v11.63h-5.47v-31.4h9.18c3.35,0,6.02.87,8.03,2.6,2.01,1.74,3.01,4.16,3.01,7.26ZM547.11,340.37c0-1.66-.39-2.85-1.18-3.57-.94-.91-2.59-1.36-4.98-1.36h-3.12v10h3.12c2.41,0,4.09-.45,5.02-1.36.75-.75,1.13-1.99,1.13-3.71Z"/>
    <path class="st0" d="M601.81,346.2c0,4.52-1.51,8.34-4.52,11.45-3.14,3.2-7.09,4.8-11.85,4.8s-8.66-1.6-11.76-4.8c-3.02-3.11-4.52-6.92-4.52-11.45s1.53-8.31,4.59-11.45c3.06-3.14,6.96-4.7,11.7-4.7s8.72,1.58,11.85,4.75c3.02,3.11,4.52,6.91,4.52,11.4ZM596.19,346.2c0-3.17-1-5.83-3.01-7.99-2.01-2.16-4.59-3.24-7.76-3.24s-5.74,1.08-7.71,3.24c-1.98,2.16-2.96,4.82-2.96,7.99s.98,5.82,2.94,7.96c1.99,2.23,4.57,3.35,7.74,3.35s5.76-1.12,7.78-3.35c1.99-2.14,2.99-4.8,2.99-7.96Z"/>
    <path class="st0" d="M640.44,361.9h-6.24l-7.47-12.03h-2.13v12.03h-5.47v-31.4h8.64c3.35,0,6.04.85,8.08,2.53,2.04,1.69,3.05,4.06,3.05,7.1,0,4.55-2.1,7.54-6.29,8.96l7.83,12.8ZM633.48,340.14c0-1.57-.39-2.71-1.18-3.44-.97-.84-2.65-1.27-5.07-1.27h-2.62v9.5h2.62c2.44,0,4.13-.44,5.07-1.31.78-.72,1.18-1.89,1.18-3.48Z"/>
    <path class="st0" d="M675.64,335.48h-8.28l-.05,26.42h-5.52v-26.42h-8.32v-4.98h22.17v4.98Z"/>
  </g>
  <path class="st0" d="M557.98,210.05h41.57l3.37-12.41-41.57.11c.93-2.65,2.03-4.98,3.32-7,1.3-2.02,2.8-3.76,4.52-5.21,1.72-1.45,3.69-2.55,5.94-3.26,2.24-.74,4.77-1.12,7.55-1.21h24.6l3.37-12.39-24.9.1c-5.41,0-10.36.65-14.79,1.98-4.43,1.32-8.32,3.3-11.7,5.95-3.38,2.64-6.38,6.04-9.02,10.16-2.65,4.14-4.91,9.01-6.76,14.64-.06.25-.13.5-.24.74-.11.23-.18.48-.25.73-.07.27-.15.52-.25.77-.09.22-.18.47-.25.74-.06.26-.14.52-.2.79-.07.27-.13.5-.2.69-.07.26-.12.53-.15.8-.04.25-.08.53-.15.8-.66,2.44-1.08,4.87-1.24,7.29-.16,2.42-.17,4.77-.05,7.08.13,2.32.65,4.46,1.54,6.46.9,1.97,2.09,3.76,3.61,5.35,1.33,1.32,2.74,2.42,4.22,3.28,1.5.86,3.13,1.45,4.92,1.79,1.78.39,3.64.67,5.55.83,1.92.18,3.91.26,5.97.26h25.3l3.27-12.41-24.61.11h-.89c-1.05,0-2.13-.05-3.23-.16-1.07-.09-2.12-.25-3.12-.45-.98-.19-1.85-.6-2.59-1.18-.72-.6-1.35-1.32-1.88-2.18-.59-.94-1.04-1.91-1.33-2.98-.31-1.06-.42-2.17-.35-3.37,0-1.12.1-2.3.31-3.53.19-1.22.45-2.46.78-3.72"/>
  <path class="st0" d="M526.09,190.42c-.53,2.05-1.28,3.69-2.27,4.95-1,1.26-2.2,2.16-3.59,2.69-1.45.47-2.91.81-4.4,1.04-1.5.24-5.41.25-5.41.25h-18.35l4.85-17.95h18.35s3.21.21,4.68.45c1.44.22,2.8.55,4.07.93,1.25.47,2.05,1.33,2.37,2.58.34,1.25.23,2.96-.3,5.08M541.96,187.42c.26-1.17.41-2.37.45-3.56.03-1.21-.02-2.38-.15-3.56-.14-1.14-.38-2.21-.78-3.23-.4-1.03-.94-1.97-1.6-2.84-.72-.98-1.59-1.81-2.58-2.48-.99-.66-2.08-1.18-3.27-1.59-1.18-.32-2.44-.6-3.72-.84-1.28-.22-6.21-.64-8.09-.64h-36.91l-19.05,71.22h14.99l7.44-27.98h17.65l8.24,27.98h16.88l-9.84-29.67c2.65-.58,5.04-1.47,7.14-2.66,2.13-1.19,4.02-2.69,5.66-4.47,1.72-1.78,3.16-3.76,4.27-5.95,1.12-2.18,2.02-4.49,2.68-6.94l.59-2.79Z"/>
  <path class="st0" d="M457.23,191.99c-.53,2.06-1.31,3.78-2.38,5.16-1.07,1.38-2.35,2.44-3.87,3.18-1.46.65-3.03,1.18-4.71,1.52-1.67.38-3.42.55-5.21.55h-18.26l5.65-21.02h17.37c4.85.15,6.84.81,9.44,1.97,1.31.61,2.14,1.61,2.47,3.04.33,1.41.17,3.29-.5,5.6M472.06,197.26c.76-1.73,1.38-3.48,1.85-5.26.45-1.91.75-3.82.89-5.7.12-1.89.02-3.72-.31-5.52-.26-1.77-.82-3.36-1.68-4.75-.85-1.38-2-2.6-3.46-3.67-2.97-1.81-6.38-2.73-9.81-3.16-3.24-.43-6.52-.41-9.78-.41-.02,0-32.89-.09-32.89-.09l-19.06,71.22h14.98l6.65-24.9,18.06.09h4.75c1.54-.06,3.06-.18,4.62-.34,1.55-.16,3.09-.38,4.61-.65,1.05-.18,2.1-.45,3.13-.79,1.02-.33,2.03-.73,3.03-1.18.53-.27,1.04-.52,1.54-.8.5-.26,1.01-.53,1.54-.8,1.79-1.12,3.39-2.35,4.81-3.71,1.41-1.37,2.66-2.87,3.72-4.51,1.11-1.64,2.05-3.34,2.82-5.06"/>
  <polygon class="st0" points="409.16 168.69 391.91 168.69 371.27 191.19 362.63 168.69 345.17 168.69 359.66 204.3 325.32 239.91 342.98 239.91 365.41 215.1 373.85 239.91 391.79 239.91 376.93 203.3 409.16 168.69"/>
  <path class="st0" d="M298.63,227.62h-.69c-1.07,0-2.13-.05-3.23-.16-1.09-.08-2.13-.25-3.13-.45-1-.19-1.85-.6-2.59-1.18-.71-.6-1.34-1.32-1.87-2.18-.6-.94-1.05-1.92-1.34-2.98-.3-1.06-.41-2.17-.35-3.37,0-1.12.1-2.3.29-3.52.21-1.22.48-2.46.8-3.72h41.57l3.37-12.41-41.57.1c.92-2.64,2.04-4.97,3.32-6.99,1.29-2.03,2.8-3.75,4.52-5.21,1.72-1.45,3.71-2.55,5.96-3.27,2.24-.72,4.75-1.11,7.54-1.19h24.6l3.38-12.39-24.9.1c-5.43,0-10.34.66-14.79,1.98-4.42,1.31-8.34,3.3-11.71,5.95-3.36,2.64-6.37,6.03-9.02,10.17-2.65,4.13-4.89,9-6.76,14.64-.05.25-.14.49-.23.74-.12.23-.18.48-.25.74-.07.26-.15.51-.27.75-.08.22-.17.47-.24.74-.06.25-.13.52-.2.79-.06.27-.13.49-.19.69-.07.26-.12.52-.15.8-.03.25-.08.52-.15.8-.66,2.44-1.08,4.87-1.25,7.29-.15,2.42-.17,4.77-.05,7.08.15,2.32.64,4.46,1.54,6.46.89,1.97,2.1,3.76,3.62,5.36,1.32,1.31,2.73,2.41,4.21,3.27,1.48.86,3.13,1.45,4.92,1.78,1.78.4,3.63.68,5.55.84,1.91.18,3.9.26,5.95.26h25.31l3.26-12.41-24.6.11h-.2Z"/>
  <polygon class="st0" points="480.63 158.07 494.33 104.2 510.59 158.07 527.96 158.07 547.01 86.84 531.73 86.84 518.73 138.03 503.25 86.84 484.31 86.84 465.26 158.07 480.63 158.07"/>
  <path class="st0" d="M396.8,124.93c-.35,1.36-.64,2.76-.88,4.15-.24,1.31-.4,2.62-.49,3.94-.17,2.41-.18,4.78-.05,7.1.14,2.3.64,4.47,1.54,6.44.9,1.99,2.1,3.78,3.61,5.35,1.34,1.41,2.76,2.53,4.27,3.37,1.53.87,3.21,1.47,5.07,1.8,1.78.33,3.67.58,5.66.74,1.97.17,4,.25,6.06.25h32.23l11.31-42.26h-35.42l-3.36,12.59h20.04l-4.57,16.76-16.86.1c-3.57,0-6.34-.54-8.33-1.63-1.99-1.1-3.23-2.73-3.66-4.91-.48-2.18-.63-4.56-.45-7.13.16-2.59.68-5.41,1.53-8.43v-.11c0-.07.03-.14.1-.19.73-2.92,1.72-5.73,2.99-8.44,1.24-2.7,2.71-5.3,4.35-7.73,1.71-2.53,3.89-4.38,6.5-5.61,2.6-1.23,5.74-1.88,9.38-1.94h32.25l3.26-12.3-32.24.09c-5.42,0-10.35.67-14.77,1.99-4.45,1.33-8.36,3.31-11.72,5.94-3.37,2.65-6.38,6.05-9.03,10.19-2.22,3.46-3.99,7.2-5.48,11.04-1.09,2.91-2.07,5.84-2.82,8.83"/>
  <polygon class="st0" points="378.7 158.07 397.75 86.84 382.07 86.84 363.02 158.07 378.7 158.07"/>
  <path class="st0" d="M339.4,156.98c3.17-.73,6.08-1.83,8.73-3.28,2.57-1.51,4.81-3.66,6.7-6.44.51-.76,1-1.56,1.44-2.35.48-.88.9-1.77,1.3-2.66.44-.98.82-1.97,1.17-2.96.18-.51.35-1.03.52-1.54.35-1.13.57-2.29.85-3.42.13-.51.21-1.04.27-1.53.04-.3.07-.56.11-.84.08-.56.14-1.12.17-1.7.02-.18.02-.35.02-.51.03-1.03,0-2.08-.15-3.13-.07-1-.28-1.94-.64-2.83-.35-.9-.84-1.7-1.44-2.43-.64-.79-1.41-1.49-2.27-2.1-.88-.58-1.79-1.01-2.79-1.28-1.04-.33-2.13-.58-3.23-.79-1.14-.22-2.3-.33-3.49-.41-1.19-.08-2.4-.12-3.59-.16-.87-.02-1.73-.02-2.58-.02-.5,0-.99,0-1.48,0-.58,0-1.19.02-1.77.02-.65,0-1.32,0-1.99.01h-2.11c-.7,0-1.41.02-2.13.02h-2.08c-.65,0-1.31,0-1.95,0h-1.72c-.46.02-.94.02-1.39.02h-.99c-.17,0-.34,0-.55,0-1.25,0-2.39-.16-3.42-.45-1.03-.29-1.94-.74-2.73-1.34-.8-.59-1.27-1.38-1.45-2.38-.16-1-.08-2.17.25-3.57.54-1.79,1.21-3.29,2.08-4.51.87-1.23,1.93-2.17,3.18-2.82,1.25-.67,2.63-1.17,4.11-1.5,1.48-.34,3.06-.55,4.71-.59h37.03l3.36-12.7-39.19.09c-3.83,0-7.36.38-10.61,1.14-3.24.78-6.2,1.91-8.83,3.42-2.64,1.46-4.91,3.6-6.81,6.46-1.89,2.84-3.38,6.31-4.5,10.41-1.14,3.98-1.53,7.31-1.2,10.03.33,2.7,1.36,4.83,3.08,6.34,1.73,1.45,3.93,2.56,6.65,3.32,2.72.76,5.91,1.09,9.61,1.04l17.58.09c1.32.07,2.56.21,3.72.4,1.16.19,2.16.46,3.02.8.94.38,1.54,1.07,1.84,2.02.3.97.35,2.2.15,3.72-.33,1.98-.93,3.61-1.79,4.91-.87,1.3-1.95,2.2-3.26,2.73-1.33.59-2.73,1.03-4.22,1.29-1.5.27-3.06.37-4.72.31h-37.51l-3.37,12.69h39.88c3.79,0,7.25-.37,10.43-1.09"/>
  <path class="st0" d="M746.63,149.6h.05c3.63,0,6.53,3.1,6.53,6.96s-2.9,6.92-6.53,6.88c-3.63,0-6.57-3.06-6.57-6.93s2.94-6.91,6.53-6.91M746.63,164.71c4.51,0,8.06-3.59,8.06-8.2s-3.54-8.16-8.01-8.16h-.05c-4.45,0-8.08,3.63-8.08,8.16s3.62,8.2,8.08,8.2"/>
  <path class="st0" d="M745.11,153.14c.25-.05.58-.09,1.05-.09,1.63,0,2.22.81,2.22,1.6,0,1.12-1.01,1.56-2.22,1.56h-1.05v-3.07ZM745.11,157.34h1.02c1.14,0,1.73.45,1.95,1.61.18,1.21.39,2.03.61,2.33h1.53c-.15-.3-.38-.84-.58-2.27-.19-1.34-.74-2.07-1.53-2.19v-.08c.98-.28,1.77-1.02,1.77-2.22,0-.87-.29-1.47-.83-1.87-.55-.4-1.46-.7-2.83-.7-1.08,0-1.82.11-2.57.22v9.11h1.44v-3.93Z"/>
  <path class="st0" d="M278.52,86.9l-41.57,41.58,9.66,20.77c1.17,2.53.69,5.64-1.45,7.44-3.23,2.71-7.9,1.48-9.55-2.06l-7.87-16.93-18.49,18.51c-1.97,1.97-5.05,2.57-7.47,1.18-3.65-2.1-4.1-6.91-1.34-9.68l21.8-21.85-9.72-20.9c-1.17-2.53-.68-5.63,1.46-7.43,3.22-2.72,7.89-1.5,9.55,2.05l7.92,17.06,29.77-29.76c-28.46-.01-56.92-.03-85.38-.01-7.11,4.75-17.08,9.75-20.12,18.84-3.2,9.59,5.78,20.46,13.7,30.07,3.33,4.03,6.34,7.7,8.24,10.96,9.18,15.76,11.14,30.54-5.24,46.18l-46.54,46.96h110.06c2.86,0,5.37-1.93,6.12-4.71,13.22-49.12,26.61-99.54,39.91-148.31h-3.43Z"/>
  <path class="st0" d="M161.58,181.58l.14-.15.15-.13c9.59-9.15,9.08-15.38,2.77-26.29-.78-1.32-1.64-2.6-2.6-3.8-2.75-3.45-5.61-6.8-8.35-10.24-9.07-11.4-17.52-25.22-12.47-40.3,1.93-5.81,8.03-12.02,12.23-13.83l-21.69.02c-2.33,0-4.36,1.57-4.96,3.82l-39.93,149.21h18.31s10.08-11.02,10.08-11.02c8.03-8.77,16.67-17.33,25.02-25.8,7.09-7.18,14.18-14.34,21.29-21.49"/>
  <path class="st0" d="M590.69,156.98c3.16-.73,6.08-1.83,8.73-3.28,2.59-1.51,4.81-3.66,6.7-6.44.51-.76,1-1.56,1.43-2.35.48-.88.91-1.77,1.31-2.66.43-.98.82-1.97,1.17-2.96.19-.51.35-1.03.53-1.54.35-1.13.56-2.29.85-3.42.13-.51.19-1.04.26-1.53.04-.3.08-.56.11-.84.08-.56.13-1.12.16-1.7.02-.18.02-.35.02-.51.04-1.03,0-2.08-.15-3.13-.07-1-.28-1.94-.63-2.83-.38-.9-.85-1.7-1.45-2.43-.65-.79-1.43-1.49-2.27-2.1-.87-.58-1.8-1.01-2.79-1.28-1.05-.33-2.12-.58-3.23-.79-1.14-.22-2.3-.33-3.49-.41-1.19-.08-2.4-.12-3.59-.16-.87-.02-1.73-.02-2.59-.02-.49,0-.98,0-1.47,0-.59,0-1.17.02-1.77.02-.65,0-1.32,0-1.99.01h-2.12c-.7,0-1.42.02-2.13.02h-2.09c-.65,0-1.3,0-1.94,0h-1.74c-.45.02-.93.02-1.39.02h-.99c-.16,0-.33,0-.54,0-1.25,0-2.4-.16-3.42-.45-1.04-.29-1.94-.74-2.73-1.34-.79-.59-1.28-1.38-1.44-2.38-.16-1-.08-2.17.24-3.57.54-1.79,1.23-3.29,2.09-4.51.88-1.23,1.92-2.17,3.19-2.82,1.25-.67,2.63-1.17,4.11-1.5,1.47-.34,3.06-.55,4.71-.59h37.03l3.36-12.7-39.18.09c-3.83,0-7.39.38-10.62,1.14-3.24.78-6.19,1.91-8.84,3.42-2.63,1.46-4.9,3.6-6.78,6.46-1.89,2.84-3.39,6.31-4.52,10.41-1.14,3.98-1.53,7.31-1.19,10.03.34,2.7,1.35,4.83,3.08,6.34,1.72,1.45,3.92,2.56,6.65,3.32,2.7.76,5.91,1.09,9.62,1.04l17.57.09c1.31.07,2.54.21,3.71.4,1.16.19,2.17.46,3.03.8.91.38,1.54,1.07,1.83,2.02.3.97.35,2.2.15,3.72-.33,1.98-.94,3.61-1.79,4.91-.86,1.3-1.95,2.2-3.28,2.73-1.31.59-2.73,1.03-4.21,1.29-1.49.27-3.06.37-4.72.31h-37.5l-3.37,12.69h39.88c3.79,0,7.25-.37,10.42-1.09"/>
  <path class="st0" d="M652.3,238.82c3.16-.74,6.09-1.82,8.75-3.27,2.57-1.53,4.8-3.68,6.69-6.45.51-.77.98-1.54,1.42-2.36.48-.87.92-1.75,1.31-2.66.44-.97.84-1.96,1.19-2.95.18-.52.35-1.02.51-1.55.35-1.11.57-2.29.85-3.41.14-.52.2-1.04.26-1.54.03-.28.07-.56.11-.83.09-.56.15-1.14.18-1.7,0-.17,0-.35,0-.52.03-1.01,0-2.06-.14-3.11-.07-1-.28-1.95-.65-2.84-.38-.89-.85-1.7-1.44-2.43-.66-.8-1.42-1.5-2.27-2.09-.88-.58-1.8-1.02-2.8-1.29-1.05-.32-2.12-.59-3.22-.78-1.16-.21-2.32-.33-3.5-.41-1.19-.08-2.38-.13-3.59-.16-.86,0-1.72-.02-2.59,0h-1.46c-.6,0-1.18,0-1.77,0-.67,0-1.32,0-2,.01-.7,0-1.4.02-2.09.02h-4.24c-.64.02-1.3.02-1.94.02h-3.11c-.34,0-.67,0-1,.02h-.53c-1.27,0-2.4-.15-3.43-.45-1.03-.28-1.94-.73-2.73-1.32-.81-.61-1.27-1.4-1.44-2.4-.18-.98-.08-2.18.23-3.56.55-1.79,1.24-3.29,2.1-4.51.86-1.23,1.93-2.17,3.18-2.83,1.26-.65,2.63-1.14,4.12-1.48,1.5-.34,3.06-.54,4.72-.59h37l3.37-12.7-39.19.1c-3.83,0-7.38.37-10.61,1.14-3.25.76-6.2,1.9-8.84,3.43-2.64,1.44-4.91,3.59-6.8,6.44-1.88,2.85-3.39,6.32-4.5,10.42-1.13,3.97-1.54,7.31-1.2,10.01.34,2.72,1.35,4.84,3.09,6.34,1.71,1.45,3.92,2.57,6.63,3.33,2.72.76,5.93,1.1,9.63,1.04l17.56.1c1.32.06,2.57.2,3.71.4,1.17.19,2.17.46,3.04.8.91.38,1.54,1.07,1.84,2.02.28.97.35,2.19.14,3.72-.32,1.99-.92,3.62-1.78,4.91-.86,1.3-1.96,2.2-3.26,2.74-1.33.59-2.74,1.01-4.22,1.29-1.49.26-3.06.36-4.72.29h-37.5l-3.37,12.7h39.89c3.78,0,7.24-.37,10.41-1.09"/>
  <path class="st0" d="M724.74,238.82c3.16-.74,6.08-1.82,8.74-3.27,2.57-1.53,4.8-3.68,6.68-6.45.52-.77,1.01-1.54,1.44-2.36.48-.87.91-1.75,1.31-2.66.43-.97.82-1.96,1.17-2.95.18-.52.35-1.02.51-1.55.38-1.11.58-2.29.86-3.41.14-.52.21-1.04.27-1.54.03-.28.07-.56.11-.83.07-.56.13-1.14.16-1.7.02-.17.02-.35.02-.52.03-1.01-.02-2.06-.15-3.11-.07-1-.28-1.95-.64-2.84-.38-.89-.84-1.7-1.45-2.43-.64-.8-1.41-1.5-2.26-2.09-.88-.58-1.8-1.02-2.79-1.29-1.05-.32-2.14-.59-3.23-.78-1.17-.21-2.31-.33-3.49-.41-1.21-.08-2.4-.13-3.59-.16-.88,0-1.73-.02-2.6,0h-1.47c-.6,0-1.18,0-1.77,0-.66,0-1.34,0-2,.01-.69,0-1.39.02-2.09.02h-4.24c-.64.02-1.29.02-1.93.02h-3.13c-.33,0-.66,0-1,.02h-.53c-1.25,0-2.4-.15-3.42-.45-1.03-.28-1.94-.73-2.73-1.32-.81-.61-1.27-1.4-1.44-2.4-.17-.98-.08-2.18.25-3.56.53-1.79,1.21-3.29,2.09-4.51.86-1.23,1.91-2.17,3.18-2.83,1.26-.65,2.63-1.14,4.11-1.48s3.06-.54,4.71-.59h37.01l3.38-12.7-39.19.1c-3.84,0-7.37.37-10.6,1.14-3.26.76-6.21,1.9-8.85,3.43-2.63,1.44-4.9,3.59-6.78,6.44-1.89,2.85-3.4,6.32-4.52,10.42-1.14,3.97-1.53,7.31-1.2,10.01.33,2.72,1.36,4.84,3.08,6.34,1.71,1.45,3.93,2.57,6.65,3.33s5.91,1.1,9.63,1.04l17.56.1c1.32.06,2.55.2,3.71.4,1.16.19,2.18.46,3.03.8.91.38,1.54,1.07,1.83,2.02.3.97.36,2.19.16,3.72-.33,1.99-.94,3.62-1.79,4.91-.87,1.3-1.96,2.2-3.27,2.74-1.33.59-2.74,1.01-4.22,1.29-1.49.26-3.06.36-4.71.29h-37.51l-3.38,12.7h39.89c3.77,0,7.24-.37,10.42-1.09"/>
</svg>