<?xml version="1.0" encoding="UTF-8"?>
<svg xmlns="http://www.w3.org/2000/svg" version="1.1" viewBox="0 0 617.31 719.48">
  <!-- Generator: Adobe Illustrator 30.4.0, SVG Export Plug-In . SVG Version: 2.1.3 Build 103)  -->
  <defs>
    <style>
      .st0 {
        fill: #fff;
      }

      .st1 {
        fill: #2c76b8;
      }
    </style>
  </defs>
  <g id="_x31_._Scotland">
    <g>
      <path class="st1" d="M299.35,273.37c-6.13,1.93-13.91,3.21-15.98,1.36-.47-.42,1.71-11.69-3.53-21.07-3.18,6.68-2.44,13.22-2.98,19.82-.68,8.27-8.12,13.94-12.38,11.06-1.93-1.31-1.89-3.4-1.25-5.6l4.27-14.74c1.51-5.23-.63-6.76-5.22-9.79,4.26-2.84,8.87-1.82,13.53-1.72-.11-2.09-2.78-3.1-3.52-4.45-.86-4.87-3.01-11.61-.72-16.17,11.2-12.36,6.58-20.25,4.52-16.25l-6.11,11.89c-2.46,4.79-3.96,11.15-8.02,14.78-2.96,2.64-3.54,3.99-4.43,8.14-1.36,6.36-12.65,13.35-16.06,9.83-2.21-2.28,1.83-7.68.87-11.27-2.39.86-6.93,1.9-8.14.07-1.11-6.58,3.4-13.11,8.6-16.74,5.24.64,9.07-1.23,12.97-4.12,7.69-5.64,13.03-13.47,19.44-20.49l5.77-6.31c2.11-2.3,1.43-8.34-2.2-8.74-3.39,1.34-4,7.62-4.06,11.21-8.2,1.96-15.78,1.16-23.72,1.85-3.61.31-7.26,1.26-10.94-1.47,4.49-3.61,12.1-2.18,13.42-5.74.3-.8-.41-2.55-1.33-3.27-9.37-7.3,1.22-14.14-.55-21.56-2.12-8.91,9.72-3.07,19.06-6.6.67-1.99-2.36-4.33-5.31-5.01,5.85-7.68,12.49-14.1,14.56-23.95-4.87,5.11-8.28,11.05-14.68,13.02-.99-.08-1.84-2.24-1.23-3.1,1.86-2.63,3.74-3.79,3.71-4.18-.15-2.03-8.03-1.51-13.44-4.85-3.59-2.22-4.88-6.55-7.25-9.72-2.06-2.75-2.64-5,.34-8.37l-10.03-.91c-4.87-2.64-2.45-8.56.34-11.65l5.33-9.84,10.71,13.18c2.1-4.66.45-12.16,3.8-13.33,5.05-1.76,10.22,11.61,11.07,21.26.49,5.57,4.34,10.37,10.51,9.6l-3.39-8.48c-2.4-5.99.88-10.16,2.66-14.57-.34-7.96-5.37-20.47-1.04-23.94,1-.8,2.3-1.03,4.05-.47l8.04,2.54c4.13-2.91,8.22-3.91,13.08-5.5-1.46-2.02-3.41-1.51-5.01-1.82-1.24-3.5-2.72-5.63-5.66-7.99,2.08-2.62,7-1.43,7.88-4.33,1.1-3.62-3.34-4.8-2.98-7.85.43-3.63,8.7,1.31,9.75-4.84,1.01-5.91,2.51-11.87,4.52-17.26,1.57-4.21,3.7-4.81,7.47-5.97,18.09-5.56,20.48,10.59,36.42,7.46,5.98-2.56,12.18-3.6,18.98-2.72,6.64-4.38,14.46-5.63,21.93-3.07.43,1.84-.24,3.36-1.19,4.63-5.51,7.41,6.43,11.01.16,16.2l-13.7,11.33c-5.69,4.71-12.84,7.64-17.56,13.36l-11.3,13.68c-.49.59-.2,1.85-.34,2.19-1.6,4.01,5.33-2.21,7.05-.99,1.23.87,1.07,2.22.13,3.67-6.07,9.35-9.67,18.05-3.73,15.35l16.54-7.49c4.07-1.84,10.22-2.8,13.89,0,7.46,5.69,14.86,5.89,23.48,3.53l21.64-.56c4.5-.12,8.22,1.9,10.38,4.43,8.64,10.11-4.62,27.04-10.59,43.35-3.2,8.76-4.55,18.75-11.74,25.36-2.72,2.5-5.89,3.35-8.06,7.15-2.18,3.82-4.15,9.13-7.43,12.11-4.18,3.79-9.16,8.13-7.05,14.53.74,2.23,13.74-.23,12.08,3.79-2.44,5.89-9.45,8.31-15.37,8.57-3.88.17-7.11,1.8-9.46,4.51l-7.91,9.15c1.59,3.7,6.53,4.51,8.78,1.62l6.05-7.74c6.32-8.09,14.38,4.1,23.83,7.88,3.89,1.55,10.07,2.37,12.36,6.75,1.64,3.14-.1,11-2.73,13.41-2.71,2.49-8.17,1.29-10.22,4.16-2.77,6.15,1.05,13.51-.94,16.5s-11.18.49-16.98,11.6c-2.73,5.24-9.47,7.58-12.81,11.86s-6.13,4.84-10.72,6.96c-8.36,3.87-15.99,10.5-23.05,16.36-7.26,6.03-14.22.05-21.58-7.83-6.66,4.73-1.72,13.14-4.99,17.31-10.52-2.16-13.7-15.11-22.98-14.59l4.19,13.01c.81,2.52-.66,8.5-3.79,7.82-4.1-.9-4.65-6.99-6.21-9.81l-6.52-11.78c-1.64-2.97-3-6.76-.84-9.78l12.39-17.35c3.42-4.79,4.69-9.73,9.76-13.66,2.04-1.59,5.7-4.79,5.81-7.61.29-7.54-13.29-12.72-12.63-21.01.31-3.94,2.12-7.62-1.22-11.59l-2.73,9.34c-1.87-2.19-2.62-6.11-5.22-6.48-4.36-.61-8.7,4.25-9.61,7.94,4.06,2.97,8.98,4.18,11.38,8.18l4.81,13.43Z"/>
      <path class="st0" d="M333.52,194.9h4.78v-17.85l-4.44,1.98-1.16-2.53,6.08-2.63h2.42v21.03h4.23v2.63h-11.91v-2.63Z"/>
    </g>
  </g>
  <g id="_x32_._Northern_Ireland">
    <g>
      <path class="st1" d="M272.78,360.4c-4.52,5.4-16.56.03-20.25,9.98l-3.73,10.06c-5.24,2.15-10.58,2.27-16.11,1.4-3.13-8.59-11.3-15.51-20.53-15.81-5.14-.17-10.12,1.47-15.2-.52-1.3-3.34-1.14-7.66-3.28-10.78-4.44-3.37-12,1.26-16.26-.69s-6.81-5.44-12.15-6.51c-3.3-.66-2.08-8.37-.11-10.57,4.2-4.68,3.93-10.41.98-15.52-1.43-2.48-1.75-7.7-.25-9.86l5.02-7.25c.92-1.32.65-3.57-.17-4.86-.59-.93-2.33-1.04-3.9-2.01-1.13-.69-.53-3.42.52-4.36,3.38-3.02,4.3-6.56,5.56-10.62.84-2.72,4.23-6.23,6.52-4.31l6.36,5.32c1.27-4.9,4.29-6.04,7.48-7.6,1.88-.92,3.62-5.71,6.52-4.84,3.88,1.17,13.01,10.23,13.19,13.06.4,6.22-13.11,4.3-12.22,11.85.17,1.45,2.21,4.26,4.09,2.8,4.95-3.84,8.12-12.21,14.83-10.05,4.05,1.3,5.3-.98,7.89-2.5,3.96-2.33,9.47-1.97,13.9-3.47l4.35,5.97c12.97,12.96,3.79,21.6,6.3,33.59l8.36-.15c1.2-.02,2.79.56,3.25,1.19,2.51,3.42-6.11,4.4-6.19,10.88,5.25-.6,9.06-1.94,14.07-.9.23,2.76-.08,8.33-2.56,10.09-2.77,1.96-4.54,2.76-2.66,6.11,1.2,2.15,3.38,2.93,6.71,1.23.97,2.54,1.5,7.5-.32,9.66Z"/>
      <path class="st0" d="M211.65,336.34c7.03-6.25,10.82-10.17,10.82-14.61,0-2.42-1.64-4.51-4.47-4.51-1.67,0-3.24.44-4.92,1.3l-1.06-2.32c1.98-1.09,3.93-1.6,6.01-1.6,4.03,0,7.41,2.42,7.41,7.03,0,5.19-4.71,10.1-9.39,14.44h9.49v2.63h-13.89v-2.36Z"/>
    </g>
  </g>
  <g id="_x33_._Wales">
    <g>
      <path class="st1" d="M365.18,593.54c-4.14,4.74-13.65,4.79-17.91.9l-11.44-14.79c-5.52-7.13-9.9,1.58-21.05,2.11-3.63.17-7.62-4.35-6.53-7.78,1.29-2.23,5.21-2.11,7.74-2.69-3.52-3.5-8.1-6.41-13.27-7.31-4.69-.82-13,11.44-22.63,9.39-4.19-.89-7.26-5.08-10.89-6.9-1.3-.65-1.5-2.42-1.4-3.31.12-1.01.71-1.99,2.06-2.66l5.33-2.67c-2.52-5.33-8.67-1.86-10.87-4.13-3.53-3.65,9.86-11.12,21.56-14.25l12.64-7.01c13.44-3.08,30.03-11.21,27.26-23.8-1.4-6.35,1.89-11.6,2.42-17.42-.25-4.96-6.32-10.8-4.2-17.28l-6.7.23c-4.27.15-5.52,5.95-7.64,7.74-6.46,1.86-17,.25-16.9-1.81.14-2.91,10.9-5.7,20.24-13.39,2.48-2.04,1.9-5,.13-7.3l-7.05-9.13c-2.79-3.61-4.49-9.65-2.4-13.89s6.8-2.83,10.49-2.12c3.51.68,8.51-.25,10.47,3.88,1.12,2.36-.64,8.2,2.78,9.98,2.52,1.31,6.73-1.46,8.75-3.17,7.56-6.38,12.03,2.71,16.77-2.45,1.48-1.62,3.98-2.62,6.25-1.15,3.85,2.5,9.08,4.26,12.16,7.67,4.34,4.79,5.37,11.63,7.68,17.39,1.88,4.7,6.67,1.92,9.88,6.7-2.78,3.3-7.26,3.01-11.91,1.22-1.36,3.63-2.99,7.6-2.56,11.14s4.44,6.15,6.47,8.68l-2.94.97c-2.35.78,1.74,8.12-4.94,9.24,1.41,2.59,1.3,5.05,1.91,8.09,3.79-.53,6.13.67,7.31,3.34,3.04,6.9-7.78,10.88-5.98,16.42,1.6,4.94,5.57,8.54,8.8,12.12l6.83,11.54c.93,1.57,4.73,2.26,4.64,5.17-.26,8.71-8.73,8.09-8.9,19.69-.03,2.23-4.92,1.74-6.65,1.88-6.92.55-11.4,5.85-15.81,10.9Z"/>
      <path class="st0" d="M344.54,523.93c1.64.65,3.24,1.09,4.92,1.09,3.21,0,5.05-1.98,5.05-4.54,0-2.83-2.49-4.47-5.6-4.47h-1.43v-2.56h1.57c2.39,0,4.61-1.57,4.61-3.89,0-2.18-1.71-3.82-4.16-3.82-1.57,0-3.11.44-4.64,1.23l-1.13-2.36c1.95-1.06,3.79-1.5,5.77-1.5,4.27,0,7.13,2.32,7.13,6.45,0,1.88-1.19,3.96-3.52,5.09,3.28,1.09,4.37,3.58,4.37,5.84,0,3.93-2.9,7.17-8.06,7.17-1.95,0-3.79-.44-5.73-1.23l.85-2.49Z"/>
    </g>
  </g>
  <g id="_x34_._North_East">
    <g>
      <path class="st1" d="M424.27,367.46c-1.43.77-2.77.31-3.31-.36-.62-.76.47-2.13.49-2.89l.97-26.25c.16-4.4,3.5-9.68-.42-13.35-1.94-1.82-4.22-3.87-6.52-5.11-2.22,2.1-5.33,3.05-7.48,1.65-2.26-1.48-2.3-4.63-1.07-7.47,2.15-4.98,1.68-11.87-3.39-14.58l-7.67-.76,4.43-6.42c4.99-7.24,12.95-4.56,15.76-9.84,2.6-4.89-2-9.98-.48-13.23,2.34-4.98,8.55-3.46,10.99-5.68,2.95-2.69,2.85-6.58,3.81-11,8.3,14.76,18.39,17.12,19.09,37.91.37,11.03,3.89,20.38,9.2,29.88l.71,11.23c3.26,7.31,8.44,14.47,15.85,18.01,1.89.61,5.57-1.9,7.65,1.81l5.11,4.22c-4.19.57-7.87,2.84-12.16,4.21l-15.15,4.85c-5.93,1.9-12.67-3.8-28.35-1.21l-8.05,4.35Z"/>
      <path class="st0" d="M427.84,314.03l9.28-15.84h3.86v15.5h3.07v2.63h-3.07v5.53h-2.9v-5.53h-9.93l-.31-2.29ZM438.08,313.69v-12.22l-7.03,12.22h7.03Z"/>
    </g>
  </g>
  <g id="_x35_._North_West">
    <g>
      <path class="st1" d="M391.5,473.8c.58-6.3-5.74-6.41-9.06-7.83-3.02-5.76-4.11-15.29-9.61-20.07-1.09-.95-2.02-1.73-2.02-2.8-.03-4.04,7.2-3.5,8.75-5.89.9-1.38-.72-4.35-1.59-5.46-3.13-4-2.03-7.52-.73-11.64,1.89-6.01.23-13.38-.06-19.33-.2-4.27,6.75-3.75,7.59-5.97l3.81-10.16c.03-2.76-3.56-5.62-5.52-7.09-7.04,3.71-6.19,12.66-9.49,12.02-1.07-.21-2.59-1.29-3.07-2.59l-7.29-19.76c-1.5-4.07-6.54-7-6.93-11.82-.39-4.87-1.18-10.84.08-15.6,1.84-6.94,14.75-12.31,13.82-23.75l12.59-5.43c2.83-6.15,7.66-8.41,14-8.49,2.72-.03,5.98-1.69,7.68,2.17,2.7,6.12-4.87,14.07.58,18.72s9.92-3.55,15.28,4.96c1.61,2.55-.64,5.46-.74,8.06l-.98,25.3-2.35,16.34c-6.81,4.95-4.66,18.05-2.38,18.71,5.37,1.58,7.24,4.49,7.43,10.16.09,2.6,4.65,4.68,6.08,6.43,3.01,3.69,2.13,8.14,2.98,12.5.5,2.61,4.03,5.21,2.66,8.2l-4.62,10.08c-1.68,14.45-11.88,4.07-15.07,15.13-2.18,7.57-6.03,3.31-16.95,11-1.54,1.08-1.39,2.93-4.87,3.89Z"/>
      <path class="st0" d="M395.38,435.65c1.88.85,3.72,1.5,5.67,1.5,3.48,0,5.63-2.22,5.63-5.63,0-2.32-1.23-4.88-5.29-4.88-1.84,0-3.55.44-5.33,1.13l.79-12.08h11.74v2.63h-9.11l-.44,6.18c.89-.27,1.81-.44,2.73-.44,5.6,0,7.88,3.69,7.88,7.41,0,4.92-3.38,8.33-8.57,8.33-2.25,0-4.37-.58-6.59-1.71l.89-2.42Z"/>
    </g>
  </g>
  <g id="_x36_._Yorkshire_and_the_Humber">
    <g>
      <path class="st1" d="M468.45,439.58c-2.78-.76-3.94,10.05-14.51,9.08l-10.43-.96c-.16-5.33-5.01-8.53-6.79-12.66-1.64-3.78-1.18-7.83-3.45-11.84-1.43-2.52.45-7.77-1.81-10.22l-7.71-8.33c1.28-11.73-9.31-6.63-9.09-17.07.08-3.69,1.05-6.48,5.29-7.17l.23-9.78c5.78,1.12,8.91-2.18,13.41-4.53,2.57-1.14,7.94-.7,10.93-1.22,7.44,3.13,15.65,4,23.14.45l13.06-4.15c2.71-.86,6.79-4.27,9.92-2.03,8.51,6.08,6.21,23.5,20.37,25.41v9.06c1.74,10.41,6.86,19.97,12.55,28.14,1.85,2.66-5.27.54-7.13,1.68-1.55.95-.62,2.36-.71,4.26-.18,3.62-6.77-4-13.97,0-.88,6.64-7.29,12.16-14.18,10.12-1.28-.38-2.19-3.63-4.3-3.3-5.82.89-7.11,5.17-11.03,6.07l-3.76-1.03Z"/>
      <path class="st0" d="M461.89,403.8l5.36-12.29h3.17l-3.69,7.92c.75-.34,1.6-.55,2.53-.55,4.57,0,8.02,3.75,8.02,8.33s-3.34,8.4-8.02,8.4-8.06-3.79-8.06-8.4c0-1.06.1-2.12.68-3.41ZM469.26,412.98c3.07,0,5.05-2.66,5.05-5.77s-1.98-5.63-5.05-5.63-5.09,2.56-5.09,5.63,2.01,5.77,5.09,5.77Z"/>
    </g>
  </g>
  <g id="_x37_._West_Midlands">
    <g>
      <path class="st1" d="M411.73,553.96c-3.52-.92-.2,7.43-1.18,8.7-.73.94-1.47.7-3.05.51l-8.05-1c-.95-2.87-.45-5.4-.55-8.38-1.58.09-4.44.06-5.27-.82-2.76-10.16-11.75-14.34-13.81-21.29-1.03-3.47,3.14-4.82,4.17-6.86,1.89-3.74,1.12-8.91.41-12.83-.44-2.46-6.91-1.69-7.48-3.95s3.47-2.08,3.92-3.14c.73-1.74-1.56-4.15-.56-6.37.42-.94,3-.73,3.81-1.07,3.14-5.25-5.41-8.34-6.24-12.54-.35-1.74.04-5.88,2.02-6.09l9.95-1.09c4.7-.51,6.79-2.61,9.57-5.76,2.96-3.34,8.58-4.33,12.87-4.88l6.09-10.06c.79-1.3,2.58-1.58,3.83-1.3,1.38.31,2.34,1.99,3.31,3.15,6.1,7.26-.12,11.04,4.42,16.18,4.37,4.95,10.97-.52,12.8,6,.76,2.7.47,7.33,2.08,9.63,10.48,9.03,4.37,24.24,12.48,27.23,9.66,3.56,3.74,11.05,6.16,15.55,1.44,2.68,6.9,1.58,7.37,2.55.79,1.64-8.89,3.51-13.51,10.06l-5.74,1.13c-4.13,6.56-11.12,2.7-11.93,9.25l-13.19.7c-3.38.18-4.88,2.15-8.3.09-1.64-.99-4.26-2.73-6.42-3.3Z"/>
      <path class="st0" d="M422.05,506.5h-12.08v-2.63h15.36v2.05l-8.98,21.61h-3.24l8.94-21.03Z"/>
    </g>
  </g>
  <g id="_x38_._East_Midlands">
    <g>
      <path class="st1" d="M458.97,515.22c-6.39-3.58-1.72-10.41-7.55-22.12-1.01-2.02-4.04-3.2-4.44-5.58-.7-4.19-.95-8.25-3.32-11.7-1.88-2.74-8.24.95-11.87-3.62-1.67-2.1-.76-4.33-.17-6.96.82-3.67-3.53-7.67-4.57-10.64,2.14-2.95,4.01-5.58,4.34-9.77l2.85-6.2c7.66,5.55,2.97,11.72,11.78,11.96s15.22,4.91,22.33-6.75l7.05-.61,8-5.91c1.02,3.43,3.79,5.3,7.57,4.12,8.6-2.68,9.59-1.72,15.1-13.45,4,5.15,9.22,2.47,13.67,3.6,5.27,1.33,12.06,7.7,13.94,13.05,3.48,9.9.19,21.24-4.88,29.63-1.79,2.95-5.27,4.28-4.79,8.49.11,1.01.11,2.86-.49,3.83-1.06,1.72-5.11,1.27-6.15,3.93-.57,1.46,2.51,4.19,1.62,5.58-1.31,2.02-11.6-1.34-14.89,2.61-5.23,6.27,8.08,15.31,5.42,22.53-3.53,3.43-9.32,5.27-12.61,9.25l-.41,9.68c-6.56,1.66-13.66-.96-20.36,1.61-.49-3.59-.87-6.19-2.23-9.06-2.71-.04-5.06.14-7.63-.59l-.81-12.05c-.18-2.67-4.33-3.63-6.49-4.84Z"/>
      <path class="st0" d="M478.08,484.55c-2.22-1.16-4.03-2.77-4.03-5.91,0-4.13,3.72-6.04,7-6.04s7.07,1.91,7.07,6.04c0,3-1.88,4.54-4.1,5.67,2.53,1.26,4.78,2.87,4.78,6.25,0,4.27-3.79,6.59-7.75,6.59s-7.68-2.32-7.68-6.59c0-3.24,2.22-4.81,4.71-6.01ZM481.05,494.48c2.49,0,4.78-1.54,4.78-3.89,0-2.66-2.39-3.72-4.98-4.81-2.42,1.06-4.51,2.22-4.51,4.81,0,2.36,2.22,3.89,4.71,3.89ZM485.15,478.64c0-1.81-1.57-3.41-4.1-3.41s-4.03,1.57-4.03,3.41c0,2.25,1.95,3.38,4.23,4.4,2.12-1.02,3.89-2.15,3.89-4.4Z"/>
    </g>
  </g>
  <g id="_x39_._South_West">
    <g>
      <path class="st1" d="M258.54,701.14c-4.75-.42-.86-10.31-4.64-12.99-4.4-3.12-7.91,6.69-16.94,3.34-2.99-1.11-8.11-2.07-8.83-6.01-.62-3.39,5.97-2.87,12.34-3.28,3.36-3.21,6.75-4.19,11.06-5.29,6.29-1.61,10.6-7.23,15.08-11.54,5.04-4.85-1.14-8.16.66-10.83.43-.64,15.71-1.76,26.12-14.45,3.74-4.56-1.54-16.7,4.15-21.64,3.64,2.8,6.83,5.28,11.87,5.4,2.24-8.44-5.48-14.04,1.53-15.36l26.85-5.03c12.54-2.35,20.72,11.08,31.77,7.5,2.71-1.14,2.8-6.52,3.66-8.85,1.79-4.82,5.38-7.28,8.36-10.86,1.97-2.37,3.04-4.73,6.46-5.71,4.55-1.3-.19-10.41,9.09-14.77.58-3.98,3.72-6.35,7.61-5.09,3.05,1.1,6.3,1.59,9.12-.09.1-2.54-.29-4.15.73-6.91,5.03,3.85,9.16,3.32,13.88,1.38l13.7-1.11c.58-1.17.98-3.37,1.81-3.98,1.17-.86,4.72-.95,4.87.29l2.14,17.31-3.84,10.03c.21,3.73.35,8.61,2.07,11.8,2.44,4.52,6.16,8.28,7.24,13.58.12.58-.54,1.77-1.08,1.63l-2.87-.77c-4.49.01-7.71,7.29-4.57,10.73,2.46,2.69,8.32,7.44,8.18,9.57-.22,3.27-5.24,1.69-6.71,4.48-.69,1.31-.28,3.18.89,4.61l4.9,6.01c6.15,7.54,12.86,3.77,11.9,8.77-.27,1.42-1.23,2.13-2.51,3.23-8.99,7.68-18.9,1.93-27.05-7.71-5.47,1.03-10.23,4.77-13.73,8.77-2.58,2.95-4.49,1.85-7.54,1.07-5.03-1.28-10.15-1.51-15.1-4.26-2.11,4.16-2.92,7.21-6.11,9.67-1.05-9.84-8.71-15.9-18.16-15.2-16.11,1.2-27.1,7.47-31.73,23.16-1.81,6.14-4.53,11.62-10.53,14.65-3.23-1.14-6.21-3.38-9.07-5.34-5.06-3.46-10.44-4.5-15.93-6.44-3.6-1.27-6.36-3.62-10.61-.62-3.08,2.18-9.14.47-12.21,2.38-4.27,2.66-8.42,4.52-12.46,6.58l-7.3,10.78c-1.86,2.75-4.07,7.77-8.53,7.38Z"/>
      <path class="st0" d="M420.13,616.12c-.72.38-1.57.58-2.49.58-4.57,0-8.02-3.79-8.02-8.4s3.45-8.36,8.02-8.36,8.06,3.79,8.06,8.36c0,1.09-.17,2.29-.58,3.17l-5.46,12.56h-3.17l3.65-7.92ZM422.72,608.31c0-3.07-2.05-5.74-5.09-5.74s-5.05,2.66-5.05,5.74,2.05,5.7,5.05,5.7,5.09-2.59,5.09-5.7Z"/>
    </g>
  </g>
  <g id="_x31_0._South_East">
    <g>
      <path class="st1" d="M551.8,639.33c-6.43,8.44-15.53,5.43-23.56,11.68l-10.86-6.88c-2.28-1.45-5.74-2.62-8.53-2.27l-12.91,1.61c-12.27,1.53-12.65,6.29-17.64,7.89-1.84.59-3.29-1.62-4.68-2.31l-15.52-7.72c-2.27-1.13-5.67-3.49-4.94-6.42.48-1.92,4.38-1.11,5.23-1.52,3.38-10.01-8.71-14.85-8.6-17.32.05-1.12.96-3.12,2.54-3.19l7.57-.35c.67-7.65-3.99-13.1-7.79-19.1-1.82-2.87-1.6-7.4-2.06-10.7l3.23-5.76c2.89-10.81-3.74-18.77-.24-25.64,1.06-2.09,5.06-1.83,7.06-3.56,4.03-3.49,7.6-7.09,13.04-7.83-.08,2.38.54,4.77,1.55,5.45,1.55,1.04,4.22-.34,5.61-1.26,3.08-2.04,11.14,2.5,18.06-1.26,3.84-2.09-3.02-12.56,8.6-15.52,1.84,8.58,2.53,18.54,6.82,24.22-2.2,1.97-4.56.82-6.14,1.77-2.64,2.18-2.47,8.41.24,9.97,8.15,4.7,2.58,8.3,7.97,15.7-.9,1.78-1.26,5.24-3.02,6.4-3.58,2.35-4.06,7.06-.97,10.4,2.74,2.97,5.63,5.53,7.42,9.46,2.81,6.2,9.69-3.35,14.59-1.51,2.81,1.05,7.45,3.47,9.98.82,2.09-2.18-.17-6.41.01-8.85.21-2.67,3.23-3.86,5.09-5.13l10.55,5.49c2.56,1.33,4.13,3.41,7.48,2.54l15.14-3.94c1.2-.31,4.68-.62,4.82.7.48,4.42-3.22,7.54-3.72,11.55-.42,3.39,2.39,7.62.2,11.36-3.93,6.71-14.87,7.34-22.03,19.87l-9.6,1.16Z"/>
      <g>
        <path class="st0" d="M470.96,606.43h4.78v-17.85l-4.44,1.98-1.16-2.53,6.08-2.63h2.42v21.03h4.23v2.63h-11.91v-2.63Z"/>
        <path class="st0" d="M485.54,597.25c0-8.16,3.14-12.29,7.99-12.29s7.99,4.13,7.99,12.29-3.14,12.25-7.99,12.25-7.99-4.06-7.99-12.25ZM498.55,597.25c0-6.79-1.95-9.66-5.02-9.66s-5.02,2.83-5.02,9.66,1.95,9.63,5.02,9.63,5.02-2.83,5.02-9.63Z"/>
      </g>
    </g>
  </g>
  <g id="_x31_1._East_of_England">
    <g>
      <path class="st1" d="M525.61,581.39c-4.87,1.46-10.17-5.75-9.9-13.87.16-4.61-7.91-6.6-6.67-10.32.9-2.71,7.41-.84,8.68-4.27.84-2.27-.79-4.04-2.56-5.5-1.96-1.62-1-4.38-1.44-6.82-.73-4.01-5.05-9.51-3.19-13.87,1.73-4.04,4.32-7.36,1.49-12.57l-5.51-10.15c-3.12-5.74,7.41-1.53,15.19-5.56,1.21-.63,2.22-2.42,2.13-3.32-.13-1.19-1.11-2.25-2.43-3.8,6.8-3.98,13.71-.76,15.08-7.08.89-4.09,3.19-6.67,7.15-8.09,9.49-3.38,19.9-3.73,29.59-.9,13.95,4.08,21.17,17.71,25.76,31.37,2.19,6.51.23,12.15-1.23,18.66l-3.12,13.93c-2.44,10.92-15.18,10.64-16.06,21.92-1.02,13.01-14.91,10.15-15.47,14.5-.37,2.87.25,6.04-1.92,8.23-3.15,3.16-7.66,4-12.32,4.01-3.03-3.61-7.45-4.19-11.39-5.8-4.18-1.7-7.44-2.02-11.86-.7Z"/>
      <g>
        <path class="st0" d="M539.7,539.82h4.78v-17.85l-4.44,1.98-1.16-2.53,6.08-2.63h2.42v21.03h4.23v2.63h-11.91v-2.63Z"/>
        <path class="st0" d="M555.1,539.82h4.78v-17.85l-4.44,1.98-1.16-2.53,6.08-2.63h2.42v21.03h4.23v2.63h-11.91v-2.63Z"/>
      </g>
    </g>
  </g>
  <g id="_x31_2._Greater_London">
    <g>
      <path class="st1" d="M539.78,602.59c-12.24-4.86-14.35,2.06-17.2,1.04-.9-.32-1.51-1.41-2.02-2.66-1.9-4.68-7.59-7.19-7.62-9.87-.03-2.62,4.32-2.66,4.25-7.73,4.79,1.4,9.07,1.65,13.86.16.82-.25,10.8,2.51,14.09,5.82-7.73,3.46-1.46,14.8-5.36,13.25Z"/>
      <g>
        <path class="st0" d="M522.22,597.31h2.16v-8.08l-2.01.9-.53-1.14,2.75-1.19h1.1v9.52h1.92v1.19h-5.39v-1.19Z"/>
        <path class="st0" d="M528.83,597.43c3.18-2.83,4.9-4.6,4.9-6.61,0-1.1-.74-2.04-2.02-2.04-.76,0-1.47.2-2.22.59l-.48-1.05c.9-.49,1.78-.73,2.72-.73,1.82,0,3.35,1.1,3.35,3.18,0,2.35-2.13,4.57-4.25,6.53h4.29v1.19h-6.29v-1.07Z"/>
      </g>
    </g>
  </g>
  <g id="_x31_3._Ireland">
    <g>
      <path class="st1" d="M19.9,509.7c-.29-9.57,9.46-16.51,18.12-17.67,2.52-.34,5.27.84,8.12-.93l4.2,7.19c1.23.74,4.5-2.23,4.36-3.77-.36-3.9-2.81-6.5-5.2-10.5l8.38-1.91c3.51-.8,5.5.11,8.82-1.83,3.53-2.06,7.7-3.1,9.35-8.33-5.47-1.03-10.97.11-16.23,2.58l-6.23,1.81c-.47.14-1.59-.77-1.5-1.23.43-2.46,10.49-4.99,18.8-13.53l5.8-5.96c3.4-3.49,3.92-5.5,3.88-9.87,1.4-4.52,5.91-9.57,9.08-13.31,2.84-3.35,14.34,4.42,13.33-3.29-.14-1.08-.83-2.78-3.02-2.53-5.2.6-9.87-.4-15.05-1.02l-11.72,1.88c-3.54-.75-4.86-4.94-6.95-7.06-3.21-3.27-6.3-5.78-8.07-10-2.92-1.08-5.29-1.41-7.9-3.78,2.45-1.83,3.58-3.49,3.83-5.54s-2.34-3.87-3.27-5.51c3.48-5.49,13.76-.7,14.63-5.39l1.58-8.47c1.2-6.47,8.28-.5,15.47-1.3.63-1.75,1.24-3.03,1.3-4.79l-14.51-.6c-5.11-1.47-8.27-6.35-12.17-9.54-.9-.73-1.76-1.09-2.1-1.58-2.48-3.53,5.1-4.59,15.07-2.19-.45-3.71-1.42-6.53-1.2-9.99-2.73-.38-4.31.39-7.99,1.11l4.96-16.67c4.33.71,4.98,6.42,7.58,6.41,2.2-.01,1.9-4.15,4.51-5.57,2.11-1.15,14.42,1.61,18.19,5.36l10.22,10.18c2.2-1.81,4.09-4.07,5.78-6.79,4.39-7.08,9.32,3.89,17.74,4.74l-.85-5.68c1.56-4.39,6.07-5.52,9.39-7.71,7.76-5.11,10.3.01,13.1-2.45,2.22-1.95,1.32-5.93-.29-10.18l-17.92-.2c-2.37-.03-4.37-.96-5.34-2.34-7.33-10.52,16.83-10.92,16.68-19.08-.06-3.06-3.21-5.03-5.3-7.41l8.8-4.67,5.21-6.86c1.42-1.87,6.02,1.64,8.34,1.05,2.7-.68,4.9-3.41,8.44-2.17-2.13,7-8.53,10.08-5.51,16.98.88.9,2.91.84,4.44.99-.7,3.92-4.08,5.8-5.54,9.48-1.17,2.97-1.31,9.57.16,12.42,2.52,4.89,3.35,8.05-.35,12.51-3.35,4.04-3.98,11.82.95,14.96,2.36,1.5,6.7,1.06,8.36,3.77,4.66,7.61,8.76.34,19.45,3.17,1.16,4.05,1.37,7.59,3.37,11.14l18.15.47c6.52.17,17.13,7.88,15.29,17.96-1.4,7.68,5.12,8.82,5.95,11.68.92,3.17-5.69,5.38-4.77,8.17,1.24,3.72,6.34,5.48,8.2,8.5,3.81,6.23-5.38,16.01-4.31,19.55l2.77,9.18c.41,6.19.98,11.96,3.33,17.82,1.7,4.25.2,8.98-3.52,11.55s-3.67,6.58-5.48,9.69c-2.7,4.64-5.45,7.88-5.36,13.83.07,4.91-3.68,9.43-6.71,12.86-5.68,6.42-.58,9.85-1.24,13.4-.72,3.86-8.53,4.44-16.08-.97-2.61-1.87-4.88-1.48-7.25.23-8.11,5.87-21.3-.24-33.2,1.93.75,2.86.02,5.77-2.63,7.36-3.23,1.93-7.19,4.91-10.94,5.58s-5.08,1.58-7.75,3.59c-4.36,3.3-11.17,2.49-15.88,5.16l-13.46,7.64c-2.93,1.67-5.93,4.31-9.75,4.06-3.48-.23-5.98,2.07-8.83,2.99-2.63-.74-6.34-4.81-9.73-3.4l-7.68,8.07c-4.13,1.76-7.17-3.69-10.02-4.84-5.94-2.39-14.27,3.46-17.45-.02l4.83-11.66c10.12-2.83,18.29-4.35,12.71-7.67-1.54-.91-27.94,13.74-35.57,4.75-1.24-1.46,1.36-3.57,2.81-3.3,5.08.96,9.56-2.2,11.22-6.82-3.12.05-5.66,3.4-8.15,2.81-2.78-.66-1.83-5.57-2.42-7.36-.85-2.55-4.18-.57-5.57-.45-3.35.29-3.87-3.45-4.14-5.39-.5-3.59,1.75-4.42,4.05-6.57,7.93-7.4,17.64-2.67,26.69-10.51l-20.67-.39-13.03,1.97Z"/>
      <g>
        <path class="st0" d="M143.11,457.92h4.78v-17.85l-4.44,1.98-1.16-2.53,6.08-2.63h2.42v21.03h4.23v2.63h-11.91v-2.63Z"/>
        <path class="st0" d="M157.79,457.27c1.64.65,3.24,1.09,4.92,1.09,3.21,0,5.05-1.98,5.05-4.54,0-2.83-2.49-4.47-5.6-4.47h-1.43v-2.56h1.57c2.39,0,4.61-1.57,4.61-3.89,0-2.18-1.71-3.82-4.16-3.82-1.57,0-3.11.44-4.64,1.23l-1.13-2.36c1.95-1.06,3.79-1.5,5.77-1.5,4.27,0,7.13,2.32,7.13,6.45,0,1.88-1.19,3.96-3.52,5.09,3.28,1.09,4.37,3.58,4.37,5.84,0,3.93-2.9,7.17-8.06,7.17-1.95,0-3.79-.44-5.73-1.23l.85-2.49Z"/>
      </g>
    </g>
  </g>
</svg>